<svg version="1.1" id="Layer_1" xmlns="http://www.w3.org/2000/svg" xmlns:xlink="http://www.w3.org/1999/xlink" x="0px" y="0px"
	 width="100%" viewBox="0 0 2560 1844" enable-background="new 0 0 2560 1844" xml:space="preserve">
<path fill="#FEFEFE" opacity="1.000000" stroke="none" 
	d="
M1650.000000,1846.000000 
	C1100.062256,1846.000000 551.124390,1846.000000 2.093309,1846.000000 
	C2.093309,1231.465210 2.093309,616.930359 2.093309,2.197780 
	C855.104797,2.197780 1708.209595,2.197780 2561.657227,2.197780 
	C2561.657227,616.666504 2561.657227,1231.333252 2561.657227,1846.000000 
	C2258.263184,1846.000000 1954.631592,1846.000000 1650.000000,1846.000000 
M1173.062744,134.328461 
	C1166.198242,134.328461 1159.333862,134.328461 1152.645752,134.328461 
	C1152.645752,339.883698 1152.645752,544.010925 1152.645752,747.907837 
	C1562.149170,747.907837 1970.914062,747.907837 2379.523438,747.907837 
	C2379.523438,543.094727 2379.523438,339.006439 2379.523438,134.328506 
	C1977.531250,134.328506 1576.289429,134.328506 1173.062744,134.328461 
M2380.272705,1183.000000 
	C2380.272705,1155.465698 2380.272705,1127.931396 2380.272705,1100.245605 
	C1970.307129,1100.245605 1561.572510,1100.245605 1152.554199,1100.245605 
	C1152.554199,1304.854370 1152.554199,1508.914795 1152.554199,1713.230469 
	C1561.929932,1713.230469 1970.658447,1713.230469 2380.272705,1713.230469 
	C2380.272705,1536.771851 2380.272705,1360.885864 2380.272705,1183.000000 
M1623.000000,836.244141 
	C1437.100830,836.244141 1251.201782,836.244141 1064.073120,836.244141 
	C1064.073120,601.827209 1064.073120,368.421387 1064.073120,135.048920 
	C1005.064392,135.048920 947.289978,135.048920 888.539124,135.048920 
	C888.539124,368.932190 888.539124,602.088684 888.539124,836.412292 
	C654.125732,836.412292 420.691864,836.412292 186.978867,836.412292 
	C186.978867,895.403503 186.978867,953.223083 186.978867,1012.148499 
	C421.011261,1012.148499 654.469360,1012.148499 888.833862,1012.148499 
	C888.833862,1246.440186 888.833862,1479.625977 888.833862,1713.340088 
	C947.550842,1713.340088 1005.357910,1713.340088 1064.380127,1713.340088 
	C1064.380127,1479.480957 1064.380127,1246.065308 1064.380127,1013.156250 
	C1065.889648,1012.532715 1066.184326,1012.304199 1066.479004,1012.304138 
	C1502.792725,1012.182007 1939.106445,1012.075256 2375.420166,1011.958008 
	C2376.415527,1011.957764 2377.416992,1011.845093 2378.402344,1011.696350 
	C2378.680420,1011.654297 2378.923096,1011.309631 2379.160400,1011.081421 
	C2379.397949,1010.853394 2379.607910,1010.596985 2379.548584,1010.662170 
	C2379.548584,952.569519 2379.548584,894.744812 2379.548584,836.244202 
	C2127.544922,836.244202 1876.272461,836.244202 1623.000000,836.244141 
M732.999817,748.634949 
	C755.500793,748.608337 778.004272,748.693970 800.300598,748.580017 
	C802.580933,728.748535 801.670715,141.751984 799.599548,135.058197 
	C595.363525,135.058197 391.207397,135.058197 186.884003,135.058197 
	C186.884003,339.666321 186.884003,543.541260 186.884003,748.635193 
	C368.570374,748.635193 549.785095,748.635193 732.999817,748.634949 
M801.232849,1551.000244 
	C801.232849,1400.793457 801.232849,1250.586670 801.232849,1100.219971 
	C595.800171,1100.219971 391.624664,1100.219971 187.065704,1100.219971 
	C187.065704,1304.827393 187.065704,1508.909180 187.065704,1713.260742 
	C391.854919,1713.260742 595.987610,1713.260742 801.232422,1713.260742 
	C801.232422,1659.480713 801.232422,1606.240479 801.232849,1551.000244 
z"/>
<path fill="#02529C" opacity="1.000000" stroke="none" 
	d="
M1174.055176,134.328491 
	C1576.289429,134.328506 1977.531250,134.328506 2379.523438,134.328506 
	C2379.523438,339.006439 2379.523438,543.094727 2379.523438,747.907837 
	C1970.914062,747.907837 1562.149170,747.907837 1152.645752,747.907837 
	C1152.645752,544.010925 1152.645752,339.883698 1152.645752,134.328461 
	C1159.333862,134.328461 1166.198242,134.328461 1174.055176,134.328491 
z"/>
<path fill="#02529C" opacity="1.000000" stroke="none" 
	d="
M2380.272705,1184.000000 
	C2380.272705,1360.885864 2380.272705,1536.771851 2380.272705,1713.230469 
	C1970.658447,1713.230469 1561.929932,1713.230469 1152.554199,1713.230469 
	C1152.554199,1508.914795 1152.554199,1304.854370 1152.554199,1100.245605 
	C1561.572510,1100.245605 1970.307129,1100.245605 2380.272705,1100.245605 
	C2380.272705,1127.931396 2380.272705,1155.465698 2380.272705,1184.000000 
z"/>
<path fill="#DC1F36" opacity="1.000000" stroke="none" 
	d="
M1624.000000,836.244141 
	C1876.272461,836.244202 2127.544922,836.244202 2379.548584,836.244202 
	C2379.548584,894.744812 2379.548584,952.569519 2379.548584,1010.662170 
	C2379.607910,1010.596985 2379.397949,1010.853394 2379.160400,1011.081421 
	C2378.923096,1011.309631 2378.680420,1011.654297 2378.402344,1011.696350 
	C2377.416992,1011.845093 2376.415527,1011.957764 2375.420166,1011.958008 
	C1939.106445,1012.075256 1502.792725,1012.182007 1066.479004,1012.304138 
	C1066.184326,1012.304199 1065.889648,1012.532715 1064.380127,1013.156250 
	C1064.380127,1246.065308 1064.380127,1479.480957 1064.380127,1713.340088 
	C1005.357910,1713.340088 947.550842,1713.340088 888.833862,1713.340088 
	C888.833862,1479.625977 888.833862,1246.440186 888.833862,1012.148499 
	C654.469360,1012.148499 421.011261,1012.148499 186.978867,1012.148499 
	C186.978867,953.223083 186.978867,895.403503 186.978867,836.412292 
	C420.691864,836.412292 654.125732,836.412292 888.539124,836.412292 
	C888.539124,602.088684 888.539124,368.932190 888.539124,135.048920 
	C947.289978,135.048920 1005.064392,135.048920 1064.073120,135.048920 
	C1064.073120,368.421387 1064.073120,601.827209 1064.073120,836.244141 
	C1251.201782,836.244141 1437.100830,836.244141 1624.000000,836.244141 
z"/>
<path fill="#03539C" opacity="1.000000" stroke="none" 
	d="
M731.999756,748.635071 
	C549.785095,748.635193 368.570374,748.635193 186.884003,748.635193 
	C186.884003,543.541260 186.884003,339.666321 186.884003,135.058197 
	C391.207397,135.058197 595.363525,135.058197 799.599548,135.058197 
	C801.670715,141.751984 802.580933,728.748535 800.300598,748.580017 
	C778.004272,748.693970 755.500793,748.608337 731.999756,748.635071 
z"/>
<path fill="#03539C" opacity="1.000000" stroke="none" 
	d="
M801.232666,1552.000244 
	C801.232422,1606.240479 801.232422,1659.480713 801.232422,1713.260742 
	C595.987610,1713.260742 391.854919,1713.260742 187.065704,1713.260742 
	C187.065704,1508.909180 187.065704,1304.827393 187.065704,1100.219971 
	C391.624664,1100.219971 595.800171,1100.219971 801.232849,1100.219971 
	C801.232849,1250.586670 801.232849,1400.793457 801.232666,1552.000244 
z"/>
</svg>